<svg xmlns="http://www.w3.org/2000/svg" width="24" height="24" viewBox="0 0 24 24">
    <g fill="none" fill-rule="evenodd">
        <g fill="#000">
            <g>
                <g>
                    <g>
                        <g>
                            <path d="M10.06 2.3c-4.142 0-7.5 3.358-7.5 7.5 0 4.142 3.358 7.5 7.5 7.5 1.582 0 3.05-.49 4.259-1.326l5.716 5.715 1.414-1.414-5.648-5.65C16.9 13.323 17.56 11.639 17.56 9.8c0-4.142-3.358-7.5-7.5-7.5zm0 2c3.038 0 5.5 2.462 5.5 5.5s-2.462 5.5-5.5 5.5-5.5-2.462-5.5-5.5 2.462-5.5 5.5-5.5z" transform="translate(-1731 -3144) translate(80 2845) translate(0 236) translate(968 53) translate(673) translate(10 10)"/>
                        </g>
                    </g>
                </g>
            </g>
        </g>
    </g>
</svg>
